# xmcd
#
# Track frame offsets: 
#        150
#        14514
#        32855
#        48283
#        64614
#        80577
#        99974
#        124339
#
# Disc length: 1887 seconds
#
# Revision: 1
# Processed by: cddbd v1.5.2PL0 Copyright (c) Steve Scherf et al.
# Submitted via: ExactAudioCopy v1.1
#
DISCID=62075d08
DTITLE=岸田教団&THE明星ロケッツ - セブンスワールド
DYEAR=0
DGENRE=Rock and Roll
TTITLE0=群青
TTITLE1=Circleend
TTITLE2=セブンスワールド
TTITLE3=Colorful
TTITLE4=感情 in the black
TTITLE5=ワイヤーステップ
TTITLE6=11月
TTITLE7=Rewriter
EXTD=
EXTT0=
EXTT1=
EXTT2=
EXTT3=
EXTT4=
EXTT5=
EXTT6=
EXTT7=
PLAYORDER=
